<mxfile host="app.diagrams.net" modified="2023-07-21T01:03:36.100Z" agent="Mozilla/5.0 (Windows NT 10.0; Win64; x64) AppleWebKit/537.36 (KHTML, like Gecko) Chrome/114.0.0.0 Safari/537.36" etag="OhhPmKBWwmqIqQX36xgJ" version="21.6.2" type="github">
  <diagram name="第 1 页" id="TSINPLCzJ5hLD6Eom0Bm">
    <mxGraphModel dx="1050" dy="549" grid="1" gridSize="10" guides="1" tooltips="1" connect="1" arrows="1" fold="1" page="1" pageScale="1" pageWidth="827" pageHeight="1169" math="0" shadow="0">
      <root>
        <mxCell id="0" />
        <mxCell id="1" parent="0" />
        <mxCell id="tjSqmoHrY1nK2L_rt-fO-19" value="" style="rounded=0;whiteSpace=wrap;html=1;dashed=1;" vertex="1" parent="1">
          <mxGeometry x="30" y="200" width="600" height="490" as="geometry" />
        </mxCell>
        <mxCell id="tjSqmoHrY1nK2L_rt-fO-18" value="" style="rounded=0;whiteSpace=wrap;html=1;dashed=1;" vertex="1" parent="1">
          <mxGeometry x="30" y="10" width="620" height="160" as="geometry" />
        </mxCell>
        <mxCell id="tjSqmoHrY1nK2L_rt-fO-16" value="" style="rounded=0;whiteSpace=wrap;html=1;" vertex="1" parent="1">
          <mxGeometry x="55" y="410" width="530" height="120" as="geometry" />
        </mxCell>
        <mxCell id="tjSqmoHrY1nK2L_rt-fO-1" value="应用程序" style="rounded=1;whiteSpace=wrap;html=1;" vertex="1" parent="1">
          <mxGeometry x="55" y="20" width="535" height="50" as="geometry" />
        </mxCell>
        <mxCell id="tjSqmoHrY1nK2L_rt-fO-2" value="本地磁盘" style="rounded=1;whiteSpace=wrap;html=1;" vertex="1" parent="1">
          <mxGeometry x="60" y="620" width="255" height="50" as="geometry" />
        </mxCell>
        <mxCell id="tjSqmoHrY1nK2L_rt-fO-3" value="网络存储" style="rounded=1;whiteSpace=wrap;html=1;" vertex="1" parent="1">
          <mxGeometry x="350" y="620" width="235" height="50" as="geometry" />
        </mxCell>
        <mxCell id="tjSqmoHrY1nK2L_rt-fO-4" value="缓冲区(Buffer)" style="rounded=1;whiteSpace=wrap;html=1;" vertex="1" parent="1">
          <mxGeometry x="60" y="543" width="525" height="60" as="geometry" />
        </mxCell>
        <mxCell id="tjSqmoHrY1nK2L_rt-fO-5" value="Ext3" style="rounded=1;whiteSpace=wrap;html=1;" vertex="1" parent="1">
          <mxGeometry x="65" y="480" width="85" height="40" as="geometry" />
        </mxCell>
        <mxCell id="tjSqmoHrY1nK2L_rt-fO-6" value="Ext4" style="rounded=1;whiteSpace=wrap;html=1;" vertex="1" parent="1">
          <mxGeometry x="175" y="480" width="85" height="40" as="geometry" />
        </mxCell>
        <mxCell id="tjSqmoHrY1nK2L_rt-fO-7" value="ZFS" style="rounded=1;whiteSpace=wrap;html=1;" vertex="1" parent="1">
          <mxGeometry x="285" y="480" width="85" height="40" as="geometry" />
        </mxCell>
        <mxCell id="tjSqmoHrY1nK2L_rt-fO-8" value="..." style="rounded=1;whiteSpace=wrap;html=1;" vertex="1" parent="1">
          <mxGeometry x="385" y="480" width="85" height="40" as="geometry" />
        </mxCell>
        <mxCell id="tjSqmoHrY1nK2L_rt-fO-9" value="NFS" style="rounded=1;whiteSpace=wrap;html=1;" vertex="1" parent="1">
          <mxGeometry x="485" y="480" width="85" height="40" as="geometry" />
        </mxCell>
        <mxCell id="tjSqmoHrY1nK2L_rt-fO-10" value="虚拟文件系统VFS" style="rounded=1;whiteSpace=wrap;html=1;" vertex="1" parent="1">
          <mxGeometry x="170" y="310" width="245" height="90" as="geometry" />
        </mxCell>
        <mxCell id="tjSqmoHrY1nK2L_rt-fO-11" value="页缓存（Cache）" style="rounded=1;whiteSpace=wrap;html=1;" vertex="1" parent="1">
          <mxGeometry x="55" y="310" width="85" height="90" as="geometry" />
        </mxCell>
        <mxCell id="tjSqmoHrY1nK2L_rt-fO-12" value="目录项缓存（Dentry）" style="rounded=1;whiteSpace=wrap;html=1;" vertex="1" parent="1">
          <mxGeometry x="458" y="310" width="125" height="40" as="geometry" />
        </mxCell>
        <mxCell id="tjSqmoHrY1nK2L_rt-fO-13" value="索引节点缓存&lt;br&gt;（Inode）" style="rounded=1;whiteSpace=wrap;html=1;" vertex="1" parent="1">
          <mxGeometry x="459" y="360" width="125" height="40" as="geometry" />
        </mxCell>
        <mxCell id="tjSqmoHrY1nK2L_rt-fO-14" value="系统调用" style="rounded=1;whiteSpace=wrap;html=1;" vertex="1" parent="1">
          <mxGeometry x="50" y="250" width="535" height="40" as="geometry" />
        </mxCell>
        <mxCell id="tjSqmoHrY1nK2L_rt-fO-15" value="库函数&lt;br&gt;（如：glibc）" style="rounded=1;whiteSpace=wrap;html=1;" vertex="1" parent="1">
          <mxGeometry x="380" y="110" width="200" height="40" as="geometry" />
        </mxCell>
        <mxCell id="tjSqmoHrY1nK2L_rt-fO-17" value="文件系统" style="text;html=1;strokeColor=none;fillColor=none;align=center;verticalAlign=middle;whiteSpace=wrap;rounded=0;" vertex="1" parent="1">
          <mxGeometry x="280" y="410" width="60" height="30" as="geometry" />
        </mxCell>
        <mxCell id="tjSqmoHrY1nK2L_rt-fO-20" value="" style="endArrow=none;html=1;rounded=0;entryX=0.5;entryY=1;entryDx=0;entryDy=0;exitX=0.803;exitY=0.035;exitDx=0;exitDy=0;exitPerimeter=0;" edge="1" parent="1" source="tjSqmoHrY1nK2L_rt-fO-14" target="tjSqmoHrY1nK2L_rt-fO-15">
          <mxGeometry width="50" height="50" relative="1" as="geometry">
            <mxPoint x="390" y="310" as="sourcePoint" />
            <mxPoint x="440" y="260" as="targetPoint" />
          </mxGeometry>
        </mxCell>
        <mxCell id="tjSqmoHrY1nK2L_rt-fO-21" value="" style="endArrow=none;html=1;rounded=0;entryX=0.326;entryY=1.044;entryDx=0;entryDy=0;entryPerimeter=0;exitX=0.333;exitY=-0.065;exitDx=0;exitDy=0;exitPerimeter=0;" edge="1" parent="1" source="tjSqmoHrY1nK2L_rt-fO-14" target="tjSqmoHrY1nK2L_rt-fO-1">
          <mxGeometry width="50" height="50" relative="1" as="geometry">
            <mxPoint x="390" y="310" as="sourcePoint" />
            <mxPoint x="440" y="260" as="targetPoint" />
          </mxGeometry>
        </mxCell>
        <mxCell id="tjSqmoHrY1nK2L_rt-fO-22" value="内核空间" style="text;html=1;strokeColor=none;fillColor=none;align=center;verticalAlign=middle;whiteSpace=wrap;rounded=0;" vertex="1" parent="1">
          <mxGeometry x="30" y="200" width="60" height="30" as="geometry" />
        </mxCell>
        <mxCell id="tjSqmoHrY1nK2L_rt-fO-23" value="用户空间" style="text;html=1;strokeColor=none;fillColor=none;align=center;verticalAlign=middle;whiteSpace=wrap;rounded=0;strokeWidth=3;" vertex="1" parent="1">
          <mxGeometry x="30" y="140" width="60" height="30" as="geometry" />
        </mxCell>
      </root>
    </mxGraphModel>
  </diagram>
</mxfile>
